PathFileType	4	(X/Y/Z)	\\147.46.242.158\로컬 디스크 (e)\MOCAP Data\Iguana Capture\iguana\Project 2\Capture day 7\Session 2\Take05.trc
DataRate	CameraRate	NumFrames	NumMarkers	Units	OrigDataRate	OrigDataStartFrame	OrigNumFrames
120.0	120.0	17	23	mm	120.0	37	17359
Frame#	Time	ana:head1			ana:head2			ana:bone1			ana:bone2			ana:bone3			ana:tail1			ana:tail2			ana:tail3			ana:tail4			ana:Rforefoot1			ana:Rforefoot2			ana:Rforefoot3			ana:Lforefoot1			ana:Lforefoot2			ana:Lforefoot3			ana:RhindLeg1			ana:RhindLeg2			ana:RhindLeg3			ana:RhindLeg4			ana:LhindLeg1			ana:LhindLeg2			ana:LhindLeg3			ana:LhindLeg4			
		X1	Y1	Z1	X2	Y2	Z2	X3	Y3	Z3	X4	Y4	Z4	X5	Y5	Z5	X6	Y6	Z6	X7	Y7	Z7	X8	Y8	Z8	X9	Y9	Z9	X10	Y10	Z10	X11	Y11	Z11	X12	Y12	Z12	X13	Y13	Z13	X14	Y14	Z14	X15	Y15	Z15	X16	Y16	Z16	X17	Y17	Z17	X18	Y18	Z18	X19	Y19	Z19	X20	Y20	Z20	X21	Y21	Z21	X22	Y22	Z22	X23	Y23	Z23	

7336	61.125	606.83972	-255.04637	56.44788	612.14526	-245.58792	58.00640	619.42780	-227.67302	47.95691	632.38354	-200.94987	43.89345	645.02551	-169.78142	38.07321	647.30365	-138.01584	31.70613	648.93945	-102.42525	22.35258	651.92700	-59.41245	10.35129	657.48999	-18.80259	3.89067	616.78223	-220.27357	24.81718	615.75702	-205.56384	22.02938	636.00043	-196.54251	-1.18237	629.92548	-242.09258	34.06292	634.85889	-251.77895	27.11394	630.84717	-262.50272	13.41155	635.68451	-167.52065	28.44976	619.06848	-170.75621	18.12805	628.08643	-156.72528	-0.74546	625.18317	-169.20644	0.01771	654.61560	-168.67279	32.67768	672.69250	-167.82774	30.50589	679.77789	-151.31621	20.94720	689.24341	-147.28339	9.46413	
7337	61.133	605.72906	-264.42938	59.36913	609.31018	-253.23442	56.84045	618.66516	-235.13995	46.88722	627.91052	-207.76727	42.85627	639.94385	-176.79247	38.11847	645.20935	-144.94720	31.35032	645.37622	-109.74289	20.63758	646.09668	-65.98095	6.50529	653.53906	-26.64087	4.00159	610.46722	-229.31015	26.28831	605.75208	-215.57434	26.48399	610.54089	-207.50443	8.06255	628.06787	-248.23312	31.81964	633.77295	-256.09009	22.64312	630.53644	-264.01590	6.99502	631.49609	-172.69531	27.04789	613.41071	-170.04710	12.94808	627.97894	-157.10265	0.76878	624.75928	-169.71675	-0.30264	650.10559	-178.06482	34.26553	668.83490	-182.40337	35.48672	674.10278	-160.79378	18.52445	684.21472	-160.84250	11.59065	
7338	61.142	602.79285	-270.30408	56.29124	607.67310	-260.86938	56.84750	616.05542	-241.49918	46.66026	623.79236	-214.38910	42.01594	636.11334	-182.50456	36.07141	644.36896	-151.22726	30.42932	642.73248	-117.12826	19.96188	641.71082	-73.71735	6.22433	649.79608	-34.25859	3.94884	606.70782	-237.88362	26.73368	599.05835	-224.66750	28.92965	597.76862	-217.73920	10.99250	627.72278	-252.70839	31.47919	636.29474	-257.60107	23.14810	632.42102	-263.83047	5.94565	628.25696	-177.62366	26.10981	612.79352	-170.70300	13.97985	627.53882	-157.85120	4.04317	622.51086	-172.98425	2.81987	646.29767	-184.77817	32.39224	663.00842	-194.79376	37.15232	669.34143	-176.64804	22.67314	680.33087	-179.96397	18.79148	
7339	61.150	601.29572	-277.86011	56.22720	606.07764	-268.12344	56.18320	613.77008	-248.49660	46.53024	619.83820	-221.16684	41.83218	632.70038	-189.11824	35.28162	643.20819	-159.60347	31.85776	641.99792	-124.95998	21.14200	638.36902	-82.43493	8.00325	646.46588	-41.95414	3.84159	603.77344	-246.49030	27.41065	593.93768	-235.09612	31.96183	586.09558	-230.88089	16.20126	626.04645	-257.36362	30.82470	636.33398	-259.42859	23.64470	632.62006	-264.10934	5.73974	623.83600	-184.16310	27.76759	612.49420	-171.88336	13.32503	626.76221	-159.32816	7.86693	621.45258	-175.27591	5.39754	641.46252	-193.03038	32.44041	655.80402	-206.71083	37.99674	665.13898	-189.15198	23.05476	674.96234	-195.66934	19.98132	
7340	61.158	599.62231	-285.08279	56.23748	603.72656	-275.87216	56.47275	611.82343	-254.39523	45.32807	616.08173	-227.70396	41.57821	626.87427	-197.72272	37.07327	642.37488	-166.83841	32.45758	642.37280	-131.76277	22.23697	636.85919	-89.37178	9.13152	642.39099	-49.91839	4.20850	601.30652	-255.00089	28.80354	590.06635	-244.66525	33.54702	578.28552	-245.90221	21.31862	624.34399	-262.36655	30.81861	635.58905	-262.59702	25.93300	632.16425	-264.29550	5.46801	624.48651	-187.14365	23.86835	611.13947	-177.39780	18.09711	625.64526	-161.89072	11.02929	621.66632	-176.57230	7.50838	637.41022	-200.55414	32.99723	648.08771	-217.73309	39.42344	663.06696	-206.53484	25.65597	668.15881	-215.21931	22.89035	
7341	61.167	597.10114	-290.54651	54.74488	602.34430	-282.48700	56.72010	608.91241	-262.23904	46.62838	612.24329	-234.28998	41.96146	620.44006	-204.20236	37.74649	640.72894	-174.58139	34.45344	643.92963	-139.74686	25.55028	636.76917	-98.55919	12.27336	638.44165	-57.64862	4.93738	599.03412	-263.23666	29.83962	586.49194	-253.96214	34.08829	574.25800	-260.63065	25.04189	622.27643	-267.80600	31.75700	633.40161	-266.11789	27.10725	631.59314	-265.66266	6.40695	622.40466	-191.44547	24.48032	609.23438	-181.33839	18.28317	624.13092	-165.75951	13.28549	622.61066	-177.30258	9.26016	632.98956	-208.34555	34.30647	639.68066	-226.06366	37.44962	658.77362	-221.99451	25.04671	658.89960	-233.80324	24.65118	
7342	61.175	594.40887	-297.71509	55.13114	600.21362	-289.66592	57.34903	606.24243	-269.50076	48.04853	608.53278	-241.10220	43.04715	618.34705	-211.00175	39.13893	638.16614	-183.32013	37.64976	644.24207	-147.87648	28.56549	637.45532	-105.98448	14.46469	635.62726	-66.26267	6.07512	596.15656	-271.69998	30.47311	582.39197	-263.70767	34.32031	572.27393	-274.88177	27.23144	619.98438	-273.79767	32.50161	630.01971	-269.59415	26.51876	631.09985	-269.60007	9.86941	615.76337	-201.83531	28.10142	607.20667	-186.47099	20.03666	622.44098	-170.05559	16.36705	623.74390	-177.89592	10.76069	628.95062	-216.05908	35.63883	633.05774	-234.94632	37.69644	652.69464	-238.91084	25.10968	648.32593	-250.59021	24.57835	
7343	61.183	591.35156	-305.23312	56.31927	596.95496	-296.42831	57.44641	603.15948	-276.74167	49.06887	605.17914	-247.41736	43.30474	616.11609	-216.85313	39.80488	635.69928	-191.32152	39.93124	643.45569	-156.04120	31.90441	638.20239	-114.20004	17.59647	634.89252	-74.89275	7.14430	592.91260	-279.54816	31.38707	577.89520	-274.06073	33.42636	571.51172	-287.62268	27.93872	618.26666	-281.73441	35.41248	627.96790	-276.85922	29.18880	629.97559	-272.61938	10.79468	616.96680	-205.95911	26.28780	605.29266	-192.20482	22.68703	619.46094	-174.85281	19.62331	624.52454	-178.78148	12.11774	624.86511	-223.86656	37.38020	627.51910	-243.16060	37.37292	644.61786	-253.64313	24.83867	637.96460	-265.02438	24.33583	
7344	61.192	587.71283	-312.69540	56.77011	592.65070	-303.02820	57.11336	600.17743	-285.01239	50.78711	602.22906	-256.17526	46.07860	613.47986	-224.49115	41.43762	633.08179	-199.39554	41.79820	641.96124	-165.14432	35.90691	637.98047	-122.87299	20.88979	636.09192	-83.15031	7.99451	589.87207	-287.33759	31.76603	573.50861	-285.60727	32.06553	569.50598	-300.37802	27.65207	616.07642	-290.57086	37.90157	624.54108	-283.44678	29.90111	627.59705	-276.91690	11.82056	613.95361	-213.41862	28.72719	603.39368	-198.66800	25.61422	616.94354	-182.80734	23.97406	624.41101	-180.38840	13.43909	621.61285	-231.84305	38.65830	623.31421	-251.59525	37.81483	636.96143	-264.51721	23.42846	632.04230	-279.78342	27.27678	
7345	61.200	583.36389	-320.64813	56.80994	588.75879	-311.21088	57.84495	596.49304	-291.36200	49.64476	599.52576	-264.15607	46.95615	607.62482	-233.89954	44.03992	630.63684	-207.92966	44.14106	639.21112	-172.45486	37.96727	637.07330	-129.70390	23.62931	638.76453	-91.31013	9.14784	586.52399	-295.82800	31.05465	569.71991	-297.45242	30.50153	566.14734	-312.02753	24.74507	610.78949	-295.84293	35.86198	619.83130	-289.39691	30.28460	624.28125	-282.16968	12.85959	604.28510	-224.36159	35.56989	601.62842	-206.76639	28.65428	614.85956	-189.15808	27.27660	622.86182	-183.14586	14.83255	619.07642	-239.60370	39.16037	620.84711	-259.26886	37.39643	633.91827	-270.80344	20.93594	627.75452	-282.77774	19.04319	
7346	61.208	579.07526	-328.55008	56.18368	584.22882	-318.95685	57.26426	592.55566	-299.52499	49.18418	596.90137	-272.61441	47.74495	602.61597	-245.24591	48.28747	627.60376	-215.57921	45.01839	636.57031	-180.80823	40.57516	636.21576	-136.85268	26.55000	641.13031	-99.28340	10.29867	581.77917	-304.19247	30.87971	566.60193	-306.85803	27.16456	562.38403	-321.75275	21.49905	606.09808	-303.50739	35.66831	615.65527	-296.83444	30.93393	620.63251	-289.16876	13.83821	601.67932	-232.48340	37.33404	598.37177	-214.77019	31.30004	611.97400	-197.18976	30.37870	617.17603	-190.96632	17.94574	616.87152	-247.61627	39.62676	620.31305	-266.98688	37.04585	633.15973	-275.84625	19.03850	628.48901	-288.05447	17.71502	
7347	61.217	574.34454	-336.36710	55.32998	579.37097	-326.92465	56.21466	588.16248	-307.68301	48.20090	594.23132	-281.27707	47.76638	604.28192	-250.94598	45.62839	624.36395	-222.92044	45.36469	634.24078	-188.27704	42.30516	636.06580	-144.06049	28.64846	641.46832	-106.70787	12.28068	576.79828	-312.04324	29.49779	562.27979	-315.17975	24.02907	559.32739	-329.32681	16.30395	601.30432	-312.16055	35.75574	610.89038	-306.18604	31.05776	617.25519	-298.70517	14.68289	599.26294	-241.18179	39.08401	593.73602	-223.77005	34.07283	608.33600	-205.44302	30.68688	615.49927	-196.76534	16.14405	614.90784	-255.78473	39.77327	620.20490	-274.57574	35.68495	632.98547	-279.57214	15.02308	629.59161	-291.40976	11.21413	
7348	61.225	569.00372	-343.78442	53.90186	574.43750	-334.64664	54.56524	583.56940	-315.78571	46.63792	591.67920	-289.58398	46.69737	604.01196	-258.25629	45.19934	620.95215	-230.65215	45.92627	631.55902	-195.61725	42.60003	635.85718	-151.45784	30.44403	641.87787	-113.84563	14.78335	572.06256	-318.89005	26.63669	560.05243	-321.20621	18.62605	555.80194	-335.23523	10.86868	594.99988	-320.14105	32.96437	606.46497	-315.33313	31.07401	614.26160	-311.28970	15.36312	598.11938	-250.19348	39.21680	588.31824	-234.15143	36.74744	603.48285	-216.71210	33.38807	606.63568	-207.66547	19.85573	613.28998	-263.60150	38.57397	620.94995	-280.33112	31.77843	634.31409	-280.59836	11.90452	630.34943	-290.63913	5.47815	
7349	61.233	563.47681	-350.62900	52.36801	568.05609	-340.82889	52.88794	578.60260	-323.38742	44.70869	588.97034	-297.13791	44.88137	602.96478	-265.58511	43.11531	617.07361	-237.63350	45.15204	628.89551	-203.00046	43.02894	635.38873	-159.50566	32.13925	641.23187	-120.72169	16.92127	567.31134	-324.65512	24.43783	555.52411	-324.59448	15.20934	552.61700	-337.10901	5.21538	590.13971	-330.42258	34.20852	601.55872	-325.67136	31.61764	610.59198	-325.07593	15.98424	596.11584	-258.26669	37.71224	582.72382	-245.76193	38.32345	597.40027	-228.59044	34.09453	595.81116	-219.83075	23.70425	611.60858	-270.70554	37.52651	621.87524	-286.39352	31.06918	634.79431	-280.90317	12.05583	631.01715	-290.92398	5.17886	
7350	61.242	557.00073	-357.50638	50.21200	562.66565	-347.40244	50.87858	574.15198	-329.66599	42.73922	585.96100	-304.78745	43.40732	600.23749	-273.42764	42.60211	612.13489	-244.50948	45.02018	625.17426	-209.91652	43.06052	634.46661	-166.98836	33.00529	641.08289	-127.90178	19.25860	562.89673	-328.08206	22.51082	552.01019	-323.06964	12.82833	552.30670	-335.85443	3.57977	583.97620	-337.64005	31.94288	596.15314	-336.37195	31.97713	605.67023	-340.00589	16.36282	592.98773	-267.05795	37.38139	576.89008	-258.17529	38.93985	591.82239	-239.74155	32.82620	583.71405	-233.72122	27.91164	609.12244	-277.64709	36.64387	621.30231	-292.01074	29.93122	634.68671	-282.81204	14.67498	630.95612	-291.29132	5.29549	
7351	61.250	551.59595	-362.99808	48.40357	556.22180	-355.18448	51.30947	568.38141	-336.05246	41.82613	582.25916	-311.94901	42.28374	594.42926	-281.49728	43.90881	606.98578	-251.23564	45.11084	620.66479	-216.79141	43.93897	632.81042	-174.08490	33.70391	640.89661	-135.49063	20.87547	560.22534	-330.92651	20.29172	550.43329	-322.62939	12.08520	552.43219	-335.54431	2.51915	578.06171	-344.09073	29.99674	590.28644	-346.46613	31.35639	598.17920	-355.87314	18.30197	592.97955	-274.16583	34.05835	571.85010	-270.58630	38.15571	582.53278	-251.06837	32.32478	572.35126	-246.20485	28.31200	606.40503	-284.18546	36.64574	620.34039	-295.29343	29.44717	633.27283	-284.15387	16.49557	630.67401	-291.92728	5.81440	
7352	61.258	545.54681	-368.13269	46.91543	550.58820	-359.61340	48.24553	563.13031	-341.90225	41.03544	578.65717	-318.73575	42.53979	593.63416	-288.34653	41.35405	601.42743	-256.54675	43.63400	615.65082	-223.23727	43.99900	630.53149	-181.24646	35.18969	641.56769	-143.46063	21.95082	557.17426	-335.33304	19.05343	549.76819	-323.62213	12.73878	553.11139	-335.33206	1.62830	571.75806	-352.08203	31.28960	583.32263	-355.84619	31.17064	587.46826	-369.96335	20.98142	585.95178	-283.27145	36.75316	567.25140	-282.70453	37.53047	571.72864	-263.13394	32.50193	560.06989	-262.30029	29.36744	603.63574	-290.70651	37.15820	619.03955	-299.04828	28.63061	631.64160	-285.64709	17.76695	630.22675	-292.32379	6.31656	
